<svg viewBox="0 0 50 50" fill="none" xmlns="http://www.w3.org/2000/svg">
    <g clip-path="url(#prefix__clip0_5438_153054)">
        <path fill-rule="evenodd" clip-rule="evenodd"
            d="M1.302 18.803A17.875 17.875 0 00.33 28.914a17.628 17.628 0 004.681 8.96 16.99 16.99 0 008.758 4.79c3.318.675 6.758.328 9.883-.996a17.196 17.196 0 007.928-6.842V43h1.316c3.383 0 6.69-1.026 9.503-2.95a17.418 17.418 0 006.3-7.853 17.874 17.874 0 00.973-10.111 17.627 17.627 0 00-4.681-8.96 16.989 16.989 0 00-8.758-4.79 16.747 16.747 0 00-9.883.996 17.196 17.196 0 00-7.928 6.842V8h-1.316c-3.383 0-6.69 1.026-9.503 2.95a17.42 17.42 0 00-6.3 7.853zM15.79 25.5V10.754a14.267 14.267 0 00-6.725 2.434 14.74 14.74 0 00-5.33 6.645 15.125 15.125 0 00-.824 8.556 14.917 14.917 0 003.96 7.582 14.376 14.376 0 007.412 4.052 14.17 14.17 0 008.362-.843 14.54 14.54 0 006.3-5.163 9.003 9.003 0 01-3.944.906c-5.087 0-9.21-4.219-9.21-9.423zm18.422 14.746V25.5c0-5.204-4.124-9.423-9.211-9.423-1.412 0-2.75.325-3.945.905a14.54 14.54 0 016.3-5.162 14.17 14.17 0 018.363-.843 14.376 14.376 0 017.411 4.052 14.917 14.917 0 013.961 7.582c.559 2.873.272 5.85-.823 8.556a14.738 14.738 0 01-5.331 6.645 14.266 14.266 0 01-6.725 2.434zm-9.343-8.017c-3.529-.07-6.376-2.984-6.446-6.594h2.49c1.963.457 3.509 2.039 3.956 4.048v2.547zm.264 0c3.528-.07 6.376-2.984 6.446-6.594h-2.49c-1.963.457-3.509 2.039-3.957 4.048v2.547zm6.446-6.864c-.07-3.61-2.918-6.524-6.447-6.595v2.547c.448 2.009 1.994 3.59 3.957 4.048h2.49zm-6.71-6.595c-3.528.071-6.376 2.985-6.446 6.595h2.49c1.963-.458 3.509-2.039 3.956-4.048V18.77z"
            fill="#8046FD" />
    </g>
    <defs>
        <clipPath id="prefix__clip0_5438_153054">
            <path fill="#fff" transform="translate(0 8)" d="M0 0h50v35H0z" />
        </clipPath>
    </defs>
</svg>