<svg viewBox="0 0 138 44" fill="none" xmlns="http://www.w3.org/2000/svg">
    <g clip-path="url(#prefix__clip0_5368_153987)">
        <path
            d="M98.247 40.947c.835 0 1.329-.632 1.329-1.62 0-1.026-.53-1.622-1.311-1.622-.447 0-.757.198-.99.512h-.01v-1.62h-.484v4.26h.484v-.404h.01c.252.345.555.494.972.494zm-.035-.405c-.656 0-.978-.519-.978-1.21 0-.667.31-1.216.983-1.216.585 0 .865.525.865 1.216 0 .697-.28 1.21-.87 1.21zm2.181 1.335c.375 0 .614-.132.864-.77l1.317-3.33h-.512l-.704 1.919c-.095.256-.203.601-.203.601h-.011s-.114-.345-.209-.601l-.727-1.92h-.524l1.203 2.992-.119.304c-.119.298-.256.376-.458.376a.678.678 0 01-.328-.066h-.024v.429c.132.054.25.066.435.066zm3.417-1.02h.81v-4.26h-.81v4.26zm2.793.09c.947 0 1.597-.704 1.597-1.615 0-.912-.649-1.615-1.597-1.615-.947 0-1.598.704-1.598 1.615 0 .913.649 1.615 1.598 1.615zm0-.62c-.501 0-.775-.4-.775-.995 0-.596.274-1.001.775-1.001.495 0 .774.405.774 1 0 .597-.279.996-.774.996zm3.321 1.573c.453 0 .845-.107 1.102-.345.226-.21.364-.5.364-.93V37.8h-.781v.323h-.012c-.185-.257-.464-.406-.847-.406-.774 0-1.322.584-1.322 1.496 0 .924.667 1.46 1.347 1.46a.985.985 0 00.798-.358h.018v.334c0 .417-.22.638-.68.638-.375 0-.547-.15-.613-.34h-.804c.082.596.595.953 1.43.953zm-.011-1.877c-.418 0-.693-.303-.693-.822 0-.513.275-.834.686-.834.488 0 .727.38.727.828 0 .453-.209.828-.722.828h.002zm3.447.924c.947 0 1.597-.704 1.597-1.615 0-.912-.65-1.615-1.597-1.615-.948 0-1.597.704-1.597 1.615 0 .913.649 1.615 1.597 1.615zm0-.62c-.501 0-.776-.4-.776-.995 0-.596.275-1.001.776-1.001.494 0 .774.405.774 1 0 .597-.28.996-.774.996zm1.973.53h.811V37.8h-.811v3.058zm0-3.533h.811v-.727h-.811v.727zm1.334 4.534h.81v-1.345h.011c.174.263.453.436.882.436.787 0 1.324-.627 1.324-1.616 0-.954-.518-1.615-1.329-1.615a1.07 1.07 0 00-.9.465h-.017v-.382h-.781v4.06-.003zm1.531-1.584c-.483 0-.739-.364-.739-.918 0-.548.203-.984.709-.984.501 0 .703.405.703.984 0 .578-.262.917-.673.917v.001zm3.113.673c.762 0 1.287-.37 1.287-.983 0-.715-.567-.858-1.079-.966-.435-.089-.84-.113-.84-.375 0-.22.208-.34.524-.34.346 0 .554.12.591.447h.732c-.059-.614-.506-1.012-1.311-1.012-.697 0-1.245.314-1.245.977 0 .666.536.816 1.084.924.417.082.805.112.805.404 0 .215-.203.352-.56.352-.363 0-.614-.155-.668-.507h-.75c.047.65.542 1.078 1.43 1.078v.002zm4.365-.09V37.8h-.811v1.765c0 .405-.233.69-.614.69-.345 0-.507-.196-.507-.554v-1.9h-.804v2.038c0 .667.382 1.102 1.06 1.102.429 0 .668-.16.877-.44h.018v.356h.781zm.523 0h.811v-1.774c0-.406.22-.668.548-.668.298 0 .47.18.47.525v1.918h.811v-1.775c0-.406.209-.668.549-.668.298 0 .471.18.471.525v1.918h.811v-2.055c0-.668-.365-1.085-1.008-1.085-.387 0-.71.202-.917.537h-.013a.907.907 0 00-.847-.537.999.999 0 00-.887.495h-.018V37.8h-.781v3.058-.002z"
            fill="#E5708C" />
        <path
            d="M130.829 2.364a2.357 2.357 0 012.356-2.357h1.572a2.358 2.358 0 010 4.714h-1.572a2.359 2.359 0 01-2.356-2.357zm-65.99 13.355c0 8.677-7.033 15.711-15.711 15.711-8.677 0-15.712-7.034-15.712-15.711C33.416 7.04 40.451.008 49.128.008c8.678 0 15.711 7.032 15.711 15.711zm-34.487-.078c.869 0 1.58.704 1.492 1.568A15.71 15.71 0 1114.643.008c.863-.088 1.568.624 1.568 1.491v12.57c0 .869.704 1.572 1.572 1.572h12.569zm56.484 18.932a4.714 4.714 0 010 9.427H78.98a4.713 4.713 0 110-9.427h7.855zm-4.714-3.143c8.678 0 15.713-7.034 15.713-15.711a15.64 15.64 0 00-1.968-7.618l2.596-2.596A3.22 3.22 0 1093.907.951L91.64 3.217a15.642 15.642 0 00-9.52-3.21c-8.676 0-15.709 7.033-15.709 15.712 0 8.677 7.034 15.711 15.711 15.711zM130.83 15.72c0 8.677-7.034 15.711-15.712 15.711-8.677 0-15.712-7.034-15.712-15.711 0-8.679 7.035-15.711 15.712-15.711 8.678 0 15.712 7.033 15.712 15.711z"
            fill="url(#prefix__paint0_linear_5368_153987)" />
    </g>
    <defs>
        <linearGradient id="prefix__paint0_linear_5368_153987" x1=".5" y1="17.6" x2="131.4" y2="17.6"
            gradientUnits="userSpaceOnUse">
            <stop stop-color="#64C2DB" />
            <stop offset=".307" stop-color="#7476ED" />
            <stop offset=".604" stop-color="#C994DF" />
            <stop offset="1" stop-color="#E56F8C" />
        </linearGradient>
        <clipPath id="prefix__clip0_5368_153987">
            <path fill="#fff" transform="translate(.5)" d="M0 0h137.5v44H0z" />
        </clipPath>
    </defs>
</svg>