<svg viewBox="0 0 50 50" fill="none" xmlns="http://www.w3.org/2000/svg">
    <g clip-path="url(#prefix__clip0_5438_153054)">
        <path fill-rule="evenodd" clip-rule="evenodd"
            d="M6.042 19.642a14.3 14.3 0 00-.779 8.09A14.103 14.103 0 009.008 34.9a13.592 13.592 0 007.007 3.831c2.654.54 5.405.263 7.906-.797a13.757 13.757 0 006.342-5.473V39h1.053c2.706 0 5.352-.821 7.602-2.36a13.935 13.935 0 005.04-6.282 14.299 14.299 0 00.779-8.09 14.102 14.102 0 00-3.745-7.168 13.592 13.592 0 00-7.006-3.831 13.398 13.398 0 00-7.907.797 13.757 13.757 0 00-6.342 5.473V11h-1.053c-2.706 0-5.352.821-7.602 2.36a13.935 13.935 0 00-5.04 6.282zM17.632 25V13.203c-1.919.18-3.77.846-5.38 1.947a11.792 11.792 0 00-4.265 5.317 12.1 12.1 0 00-.66 6.844 11.934 11.934 0 003.17 6.066 11.501 11.501 0 005.928 3.241c2.246.458 4.575.223 6.69-.674a11.631 11.631 0 005.04-4.13 7.202 7.202 0 01-3.155.724c-4.07 0-7.368-3.375-7.368-7.538zm14.736 11.797V25c0-4.163-3.299-7.538-7.368-7.538-1.13 0-2.2.26-3.156.724a11.63 11.63 0 015.04-4.13 11.336 11.336 0 016.69-.674 11.501 11.501 0 015.93 3.242 11.933 11.933 0 013.168 6.065 12.1 12.1 0 01-.659 6.844 11.79 11.79 0 01-4.264 5.317 11.413 11.413 0 01-5.38 1.947zm-7.473-6.413c-2.823-.057-5.102-2.388-5.157-5.276h1.991c1.57.366 2.808 1.631 3.166 3.238v2.038zm.21 0c2.823-.057 5.102-2.388 5.157-5.276h-1.991c-1.571.366-2.808 1.631-3.166 3.238v2.038zm5.157-5.492c-.055-2.888-2.334-5.219-5.157-5.276v2.038c.358 1.607 1.595 2.872 3.166 3.238h1.991zm-5.367-5.276c-2.823.057-5.102 2.388-5.157 5.276h1.991c1.571-.366 2.808-1.631 3.166-3.238v-2.038z"
            fill="#8046FD" />
    </g>
    <defs>
        <clipPath id="prefix__clip0_5438_153054">
            <path fill="#fff" transform="translate(5 11)" d="M0 0h40v28H0z" />
        </clipPath>
    </defs>
</svg>