<svg viewBox="0 0 200 200" fill="none" xmlns="http://www.w3.org/2000/svg">
    <g clip-path="url(#prefix__clip0_5421_153046)" fill="#EF464C">
        <path d="M136.445 136H64V81.784L83.863 64h52.582v72zm-70.071-2.374h67.698V66.374H84.768L66.374 82.846v50.78z" />
        <path
            d="M129.475 127.546H73.121V88.504L88.163 73.14h39.553v46.273H81.842V91.938l9.882-10.096h26.799v21.654h-9.592v-2.374h7.218V84.215H92.722l-8.509 8.691v24.133h41.132V75.514H89.161L75.493 89.473v35.7h53.982v2.373z" />
        <path d="M110.118 112.106H90.834V92.821h19.284v19.285zm-16.907-2.374h14.534V95.191H93.211v14.541z" />
    </g>
    <path
        d="M3 38.563V26.374A24.375 24.375 0 0127.375 2H51.75M3 160.438v12.187A24.375 24.375 0 0027.375 197H51.75M149.25 2h24.375A24.375 24.375 0 01198 26.375v12.188M149.25 197h24.375A24.375 24.375 0 00198 172.625v-12.187"
        stroke="#475467" stroke-width="4" stroke-linecap="round" stroke-linejoin="round" />
    <defs>
        <clipPath id="prefix__clip0_5421_153046">
            <path fill="#fff" transform="translate(64 64)" d="M0 0h72.445v72H0z" />
        </clipPath>
    </defs>
</svg>